<?xml version="1.0" standalone="no"?>
<!DOCTYPE svg PUBLIC "-//W3C//DTD SVG 20010904//EN"
 "http://www.w3.org/TR/2001/REC-SVG-20010904/DTD/svg10.dtd">
<svg version="1.0" xmlns="http://www.w3.org/2000/svg"
 width="32.000000pt" height="32.000000pt" viewBox="0 0 32.000000 32.000000"
 preserveAspectRatio="xMidYMid meet">

<g transform="translate(0.000000,32.000000) scale(0.100000,-0.100000)"
fill="#000000" stroke="none">
<path d="M121 310 c-75 -18 -125 -85 -118 -161 12 -145 193 -194 281 -76 16
21 21 43 21 87 0 44 -5 66 -21 87 -39 52 -103 76 -163 63z m57 -57 c-2 -30 -7
-38 -23 -38 -16 0 -21 8 -23 38 -3 34 -1 37 23 37 24 0 26 -3 23 -37z m-77
-34 c16 -16 18 -23 8 -35 -24 -29 -76 -2 -65 34 9 28 30 28 57 1z m169 1 c9
-16 6 -22 -15 -36 -30 -19 -55 -12 -55 15 0 38 53 54 70 21z m-90 -60 c0 -21
-33 -29 -45 -10 -9 15 4 30 26 30 12 0 19 -7 19 -20z m-71 -24 c10 -12 8 -19
-8 -35 -27 -27 -48 -27 -57 1 -11 36 41 63 65 34z m150 -3 c20 -16 20 -20 8
-38 -13 -17 -18 -18 -41 -7 -14 6 -26 20 -26 30 0 36 25 42 59 15z m-81 -66
c3 -34 1 -37 -22 -37 -23 0 -26 4 -26 33 0 38 7 49 30 45 9 -2 16 -16 18 -41z"/>
<path d="M241 20 l-23 -20 51 0 c44 0 51 3 51 20 0 27 -46 27 -79 0z"/>
</g>
</svg>
